<mxfile host="app.diagrams.net" agent="Mozilla/5.0 (Macintosh; Intel Mac OS X 10_15_7) AppleWebKit/537.36 (KHTML, like Gecko) Chrome/139.0.0.0 Safari/537.36" version="28.2.1">
  <diagram name="第 1 页" id="u8UR_1YLAjXsAtl_6FsC">
    <mxGraphModel dx="2061" dy="744" grid="1" gridSize="10" guides="1" tooltips="1" connect="1" arrows="1" fold="1" page="1" pageScale="1" pageWidth="827" pageHeight="1169" math="0" shadow="0">
      <root>
        <mxCell id="0" />
        <mxCell id="1" parent="0" />
        <mxCell id="dJTWJvGlnKYWzjW21LrT-1" value="" style="shape=actor;whiteSpace=wrap;html=1;" parent="1" vertex="1">
          <mxGeometry x="60" y="80" width="40" height="60" as="geometry" />
        </mxCell>
        <mxCell id="dJTWJvGlnKYWzjW21LrT-2" value="Rancher Server" style="rounded=0;whiteSpace=wrap;html=1;verticalAlign=top;" parent="1" vertex="1">
          <mxGeometry x="190" y="50" width="570" height="220" as="geometry" />
        </mxCell>
        <mxCell id="8Glbr3H1sNxpEvfzDe3f-4" value="" style="edgeStyle=orthogonalEdgeStyle;rounded=0;orthogonalLoop=1;jettySize=auto;html=1;" parent="1" source="dJTWJvGlnKYWzjW21LrT-3" target="dJTWJvGlnKYWzjW21LrT-5" edge="1">
          <mxGeometry relative="1" as="geometry" />
        </mxCell>
        <mxCell id="dJTWJvGlnKYWzjW21LrT-3" value="Authentication Proxy" style="rounded=1;whiteSpace=wrap;html=1;labelBackgroundColor=none;fillColor=#66B2FF;fontColor=#000000;" parent="1" vertex="1">
          <mxGeometry x="220" y="80" width="160" height="60" as="geometry" />
        </mxCell>
        <mxCell id="dJTWJvGlnKYWzjW21LrT-5" value="Cluster Controller 1" style="rounded=1;whiteSpace=wrap;html=1;" parent="1" vertex="1">
          <mxGeometry x="220" y="190" width="156" height="60" as="geometry" />
        </mxCell>
        <mxCell id="dJTWJvGlnKYWzjW21LrT-6" value="Cluster Controller 2" style="rounded=1;whiteSpace=wrap;html=1;" parent="1" vertex="1">
          <mxGeometry x="400" y="190" width="156" height="60" as="geometry" />
        </mxCell>
        <mxCell id="dJTWJvGlnKYWzjW21LrT-7" value="Cluster Controller 3" style="rounded=1;whiteSpace=wrap;html=1;" parent="1" vertex="1">
          <mxGeometry x="580" y="190" width="156" height="60" as="geometry" />
        </mxCell>
        <mxCell id="dJTWJvGlnKYWzjW21LrT-8" value="&amp;nbsp; &amp;nbsp;&amp;nbsp;&lt;span style=&quot;background-color: transparent; color: light-dark(rgb(0, 0, 0), rgb(255, 255, 255));&quot;&gt;User Cluster 1&lt;/span&gt;" style="rounded=0;whiteSpace=wrap;html=1;verticalAlign=top;align=left;" parent="1" vertex="1">
          <mxGeometry x="-140" y="350" width="350" height="330" as="geometry" />
        </mxCell>
        <mxCell id="8Glbr3H1sNxpEvfzDe3f-13" value="" style="edgeStyle=orthogonalEdgeStyle;rounded=0;orthogonalLoop=1;jettySize=auto;html=1;" parent="1" source="dJTWJvGlnKYWzjW21LrT-9" target="dJTWJvGlnKYWzjW21LrT-10" edge="1">
          <mxGeometry relative="1" as="geometry" />
        </mxCell>
        <mxCell id="dJTWJvGlnKYWzjW21LrT-9" value="Cluster Agent" style="rounded=1;whiteSpace=wrap;html=1;fillColor=#66B2FF;" parent="1" vertex="1">
          <mxGeometry x="-30" y="380" width="120" height="60" as="geometry" />
        </mxCell>
        <mxCell id="dJTWJvGlnKYWzjW21LrT-10" value="Kubernetes API Server" style="rounded=1;whiteSpace=wrap;html=1;" parent="1" vertex="1">
          <mxGeometry x="-30" y="467" width="120" height="60" as="geometry" />
        </mxCell>
        <mxCell id="dJTWJvGlnKYWzjW21LrT-11" value="Kubelet" style="rounded=1;whiteSpace=wrap;html=1;fillColor=#0066CC;fontColor=#FFFFFF;movable=1;resizable=1;rotatable=1;deletable=1;editable=1;locked=0;connectable=1;" parent="1" vertex="1">
          <mxGeometry x="-130" y="570" width="90" height="35" as="geometry" />
        </mxCell>
        <mxCell id="dJTWJvGlnKYWzjW21LrT-12" value="Kubelet" style="rounded=1;whiteSpace=wrap;html=1;fillColor=#0066CC;fontColor=#FFFFFF;movable=1;resizable=1;rotatable=1;deletable=1;editable=1;locked=0;connectable=1;" parent="1" vertex="1">
          <mxGeometry x="-15" y="570" width="90" height="35" as="geometry" />
        </mxCell>
        <mxCell id="dJTWJvGlnKYWzjW21LrT-13" value="Kubelet" style="rounded=1;whiteSpace=wrap;html=1;fillColor=#0066CC;fontColor=#FFFFFF;movable=1;resizable=1;rotatable=1;deletable=1;editable=1;locked=0;connectable=1;" parent="1" vertex="1">
          <mxGeometry x="100" y="570" width="90" height="35" as="geometry" />
        </mxCell>
        <mxCell id="dJTWJvGlnKYWzjW21LrT-18" value="Controlplane" style="rounded=1;whiteSpace=wrap;html=1;fillColor=#FFFFFF;fontColor=#000000;movable=1;resizable=1;rotatable=1;deletable=1;editable=1;locked=0;connectable=1;" parent="1" vertex="1">
          <mxGeometry x="-130" y="605" width="90" height="35" as="geometry" />
        </mxCell>
        <mxCell id="dJTWJvGlnKYWzjW21LrT-19" value="etcd" style="rounded=1;whiteSpace=wrap;html=1;fillColor=#FFFFFF;fontColor=#000000;movable=1;resizable=1;rotatable=1;deletable=1;editable=1;locked=0;connectable=1;" parent="1" vertex="1">
          <mxGeometry x="-15" y="605" width="90" height="35" as="geometry" />
        </mxCell>
        <mxCell id="dJTWJvGlnKYWzjW21LrT-20" value="worker" style="rounded=1;whiteSpace=wrap;html=1;fillColor=#FFFFFF;fontColor=#000000;movable=1;resizable=1;rotatable=1;deletable=1;editable=1;locked=0;connectable=1;" parent="1" vertex="1">
          <mxGeometry x="100" y="605" width="90" height="35" as="geometry" />
        </mxCell>
        <mxCell id="dJTWJvGlnKYWzjW21LrT-21" value="Kubelet" style="rounded=1;whiteSpace=wrap;html=1;fillColor=#0066CC;fontColor=#FFFFFF;movable=1;resizable=1;rotatable=1;deletable=1;editable=1;locked=0;connectable=1;" parent="1" vertex="1">
          <mxGeometry x="110" y="580" width="90" height="35" as="geometry" />
        </mxCell>
        <mxCell id="dJTWJvGlnKYWzjW21LrT-23" value="worker" style="rounded=1;whiteSpace=wrap;html=1;fillColor=#FFFFFF;fontColor=#000000;movable=1;resizable=1;rotatable=1;deletable=1;editable=1;locked=0;connectable=1;" parent="1" vertex="1">
          <mxGeometry x="110" y="615" width="90" height="35" as="geometry" />
        </mxCell>
        <mxCell id="dJTWJvGlnKYWzjW21LrT-24" value="&amp;nbsp; &amp;nbsp;&amp;nbsp;&lt;span style=&quot;background-color: transparent; color: light-dark(rgb(0, 0, 0), rgb(255, 255, 255));&quot;&gt;User Cluster 2&lt;/span&gt;" style="rounded=0;whiteSpace=wrap;html=1;verticalAlign=top;align=left;" parent="1" vertex="1">
          <mxGeometry x="260" y="350" width="350" height="330" as="geometry" />
        </mxCell>
        <mxCell id="dJTWJvGlnKYWzjW21LrT-25" value="" style="shape=image;verticalLabelPosition=bottom;labelBackgroundColor=default;verticalAlign=top;aspect=fixed;imageAspect=0;image=data:image/png,iVBORw0KGgoAAAANSUhEUgAAAHAAAAAqCAYAAABr9d/aAAAAAXNSR0IArs4c6QAABLNJREFUeF7tm79rVEEQx/eCoIYQDYKN+gcIFpcfoo2kMI1tCgWxuBNiIEViYRcs1dakCMSAJ4e2qazsRAQhiblCyB+gaWyCosaI5GRyzLk3N29n5/3IvRf2QRKStz9m57Pf2dndS6nZbDZNeArrgVIAWFh2B4YHgMXmFwAWnJ8fwOqjrwfjXNva6+l4ZyZPmZnJwZ7akLfOxRB66c7nXNl8+eJxU5s/myubemmME+DS6neztPqtl/axfQcl/neLE2De1IdmBxUmBAghDJyoedJW86eXFzTdH9myagUmCV+QDKWVCAWArTmpBpgkfKWpwgAwJkCoFleFoD7ckiSNaQFgAoDofOpEmvRwak0rMZIAbjQ2I+fIaHmYfWfX4crQNqGMqx+7E6m9KJukia4OoXaDEkAoSxOetNZBF0Bw6tTcrHPs09W7ZrpS7SgzMn6t/Tt9v/yiZpZrz9vvVxYWDTj93tysWXdMFqgwVh42zxYW23XBvuVaja3H2eUaSGyAvurKK0DOsVEAKTzbyVqAtC0OjgaiGqCUxMA6B194AEDLp7UOahQIDhkrl816o2E2Njc7Zj4qCRzJAXTBgzo2QFDadLVT1QgIQ6QPcKjz8e07KXrGy0I1CQxknWtbv7uOvqRExmeroQWI4ZKGV3u2U4AA3Q7FnDIoQDtURhHAOvbkoWDtd6mGUEmBtDOAqD2ARvAukHEBRimN+7utVrqO4TjjAIRJRJOWQwOI2wj4SU9jtKczrpklhdo4ALnkwQ5VtgKpbVGKoABHh7szXJos0ba5pCuzECoFZk2IldpyZawagFH90JDoAuijQK6fqHp2WdpvpkkMdgygQHGoOpq8cOel0tpGFZwlQE5RLoAwbq6OlJRIAGl9DTywKVYWivC4GWdnoPTeTtoDarYcGgWCEyG0cfs4lxKgnr3H42D4ZKFRm/Sk8GIB9LmJwPWLhlPXusYlR2kpEGe1lHBw2wjJyVKbUiaK77XKw3oqBXLr237TmBJIGb5ZD24VqAq5ozTXuhl1AK5RIDqHJgs0JHIApQQjDkBpUki5gf1eBZCq79WbH+ZJfeegvYeVIXNrYqDdNqqNOhqA2I+9jkYZzikxDkBon3Me7PcgzCU9icFQzY0DM1FpzdQqUgXQdfZ5rK9kGvXzHbaD2nxCrjTj0gTIKQoV6joLpQmO5iwUxofbAilROlSAI5Uv5s/f1ge7B072mQ8r5xIB/Lm7b65MbZuJsX7z9P6ZLjXbjcdVILQRdTDtAkjBY0Ljq6hcAKRqev3+l3lc3zF9JWPmK0PmxtX+to9x7dKc3OzuNc34zLa5eX3APLh9OjZAqMhd/VClYxnMEqU6aVwn+V4/ga0+V0yqEKqBYScfrXXuBBspfdZALpGR7gOlsHxU3qsAwqB91jTNRyd8JgWXuQaArSmoBgiVXGm/dIbJzfy0txFHRV0+44gFECG2fg62P2kGd4DScVmUUfbRHLbhai8o0EOB0tGXzwzJooxP2M2i3zy26VRgXgGmeeORRygam8I/t2i8lcOyIkCwWZNVZjVG3Ipob/ezsicv7XoBzIuxwY5uDwSABZ8VAWAAWHAPFNz8oMAAsOAeKLj5/wBxbf2wmFbKegAAAABJRU5ErkJggg==;" parent="1" vertex="1">
          <mxGeometry x="268" y="380" width="112" height="42" as="geometry" />
        </mxCell>
        <mxCell id="dJTWJvGlnKYWzjW21LrT-26" value="Cluster Agent" style="rounded=1;whiteSpace=wrap;html=1;fillColor=#66B2FF;" parent="1" vertex="1">
          <mxGeometry x="400" y="390" width="120" height="60" as="geometry" />
        </mxCell>
        <mxCell id="dJTWJvGlnKYWzjW21LrT-27" value="Kubernetes API Server" style="rounded=1;whiteSpace=wrap;html=1;" parent="1" vertex="1">
          <mxGeometry x="360" y="475" width="120" height="60" as="geometry" />
        </mxCell>
        <mxCell id="dJTWJvGlnKYWzjW21LrT-28" value="Kubelet" style="rounded=1;whiteSpace=wrap;html=1;fillColor=#0066CC;fontColor=#FFFFFF;movable=1;resizable=1;rotatable=1;deletable=1;editable=1;locked=0;connectable=1;" parent="1" vertex="1">
          <mxGeometry x="270" y="570" width="90" height="35" as="geometry" />
        </mxCell>
        <mxCell id="dJTWJvGlnKYWzjW21LrT-29" value="Kubelet" style="rounded=1;whiteSpace=wrap;html=1;fillColor=#0066CC;fontColor=#FFFFFF;movable=1;resizable=1;rotatable=1;deletable=1;editable=1;locked=0;connectable=1;" parent="1" vertex="1">
          <mxGeometry x="385" y="570" width="90" height="35" as="geometry" />
        </mxCell>
        <mxCell id="dJTWJvGlnKYWzjW21LrT-30" value="Kubelet" style="rounded=1;whiteSpace=wrap;html=1;fillColor=#0066CC;fontColor=#FFFFFF;movable=1;resizable=1;rotatable=1;deletable=1;editable=1;locked=0;connectable=1;" parent="1" vertex="1">
          <mxGeometry x="500" y="570" width="90" height="35" as="geometry" />
        </mxCell>
        <mxCell id="dJTWJvGlnKYWzjW21LrT-31" value="Controlplane" style="rounded=1;whiteSpace=wrap;html=1;fillColor=#FFFFFF;fontColor=#000000;movable=1;resizable=1;rotatable=1;deletable=1;editable=1;locked=0;connectable=1;" parent="1" vertex="1">
          <mxGeometry x="268" y="605" width="90" height="35" as="geometry" />
        </mxCell>
        <mxCell id="dJTWJvGlnKYWzjW21LrT-32" value="etcd" style="rounded=1;whiteSpace=wrap;html=1;fillColor=#FFFFFF;fontColor=#000000;movable=1;resizable=1;rotatable=1;deletable=1;editable=1;locked=0;connectable=1;" parent="1" vertex="1">
          <mxGeometry x="384" y="605" width="90" height="35" as="geometry" />
        </mxCell>
        <mxCell id="dJTWJvGlnKYWzjW21LrT-33" value="worker" style="rounded=1;whiteSpace=wrap;html=1;fillColor=#FFFFFF;fontColor=#000000;movable=1;resizable=1;rotatable=1;deletable=1;editable=1;locked=0;connectable=1;" parent="1" vertex="1">
          <mxGeometry x="500" y="605" width="90" height="35" as="geometry" />
        </mxCell>
        <mxCell id="dJTWJvGlnKYWzjW21LrT-34" value="Kubelet" style="rounded=1;whiteSpace=wrap;html=1;fillColor=#0066CC;fontColor=#FFFFFF;movable=1;resizable=1;rotatable=1;deletable=1;editable=1;locked=0;connectable=1;" parent="1" vertex="1">
          <mxGeometry x="510" y="580" width="90" height="35" as="geometry" />
        </mxCell>
        <mxCell id="dJTWJvGlnKYWzjW21LrT-35" value="worker" style="rounded=1;whiteSpace=wrap;html=1;fillColor=#FFFFFF;fontColor=#000000;movable=1;resizable=1;rotatable=1;deletable=1;editable=1;locked=0;connectable=1;" parent="1" vertex="1">
          <mxGeometry x="510" y="615" width="90" height="35" as="geometry" />
        </mxCell>
        <mxCell id="dJTWJvGlnKYWzjW21LrT-37" value="&amp;nbsp; &amp;nbsp;&amp;nbsp;&lt;span style=&quot;background-color: transparent; color: light-dark(rgb(0, 0, 0), rgb(255, 255, 255));&quot;&gt;User Cluster 3&lt;/span&gt;" style="rounded=0;whiteSpace=wrap;html=1;verticalAlign=top;align=left;" parent="1" vertex="1">
          <mxGeometry x="660" y="350" width="350" height="220" as="geometry" />
        </mxCell>
        <mxCell id="dJTWJvGlnKYWzjW21LrT-38" value="" style="shape=image;verticalLabelPosition=bottom;labelBackgroundColor=default;verticalAlign=top;aspect=fixed;imageAspect=0;image=data:image/png,iVBORw0KGgoAAAANSUhEUgAAAK0AAABECAYAAADz5LUJAAAAAXNSR0IArs4c6QAACvFJREFUeF7tnAlQFGcWx/9e8a71IJboUiqYVctEwwqB9QgoKwoeFaMiwaMUj1KDgFousoAmQSQsHihGE5FB3YpKSFQCHkSlIFqFOmAUD0BTQayKKHgEtXSrvLbe5/bsMDNMd8/FTM/3VU1RTH/f6++99+v3ve9197R4/fr1a/DGLeBAFmjBoXUgb/GpMgtwaDkIDmcBDq3DuYxPmEPLGXA4CzgntLT1bOFwvuIT/p8FnBNa7n6HtkDT0PJo5NCOVfLkeaRVsncVqhuHVqGOVbJaHFole1ehunFoFepYJavFoVWydxWqG4dWoY5VslocWiV7V6G6cWgV6lglq2U2tKWlpSbbx8vLy+hYa8o2edJ8YLNbQDa0BNKOHTvYxNVqtckKeHt7IzMz0+j4+fPnm3UOEr5kyRJ2DuGvyRPmA+3GArKgJVgFYM3VgCASA8kS0ArzlHI+c3Xi421jAcnQWhIgIfKJQUtRPTw83KKWKC8vt6g8Lsz2FpAErSUjrKCiFHisAa2UtMT2buBnlGMBUWitAawccIYMGSJHH0l9eaogyUx220kUWktBQ6Bqb4jEKgfaFhPyaIq85mz+tGVKifR26zUnn5hRaE1dns0BVIo/tOE1dWOoUqkg58KRMi/exzYWMAqt1NSAICUAhL+2mXrjs8iNxhza5vCSZc5pNrT26HwpF5ucvNoypuZSLGUBo9CKlbnseUMjNncOraUQsr0cs6C1xygrmFAsH+fQ2h42S52RQ2uGJV+9egX6tGrVCi1a6L+TXlz8M54+fYqgoPHsLHfu3MHz58/h5ubG/j9y5Cg6deoEP78PTZ4FVVOqq2sQEjLNZBnGBr548QItW7ZkH7FGujY0PIKra0+9ri9fvgT9bFzr1q31jtH3dLwpO+oO4NCKecLI8eioFfh2336sWBGN2NgYvZ4ffzwddXV1OHOmGOT8d94ZhCdPnuDGjUp06fIneHv7wsPDAwcOfGvyLFatisHu3XtRX19rsoymBn733ff49NNl8PIahmPH8g12I72+/nonDhzIRlXVddaHLsRx48YiISEevXv3Yt9NnDgZV69WoLr6RiM5165dw7RpM9CtWzfk5//I7CLWOLRiFmri+P379zFw4LsaJ1VUXEa7du0a9daGlqLJuHHBePToEQoLT6BDhw52D21AQCDKyy8znU6eLMDQoY1v9Ny7dw8zZoSxPp6e78Pf/0P06tUbVVVV2LVLhbffdsGFC2pmF0PQ3rjxKwIDg+Di0h15eYfRs6d+hDZkfg6tidBu27Ydn3+eiMjICGzdug1ffZWut0RrQ2voNPYcaUtLyxAUNBGLFy9ikXRm2CdI27JJowalRWFhs3HqVCE2bkzF7NkzG6VIDx48wN27dzFo0CCDkbampobJp1ZQcAxubn+W7AkOrWRT/b8jLYnDhn0AFxcXFBQcxZAhnnB1dcWpUz81GWnpwLJlUaivv6dJBwhad/d+GD16NFtea2puwcfnAyQnr0O/fv2YrN9/v42UlH+hpOQsbt6swYgRw9lxAQYhPaAUIy1tK65cucpkJiTEwd/fT5IMQyagtIDSA1pB1qz5DDk5P6Cy8gq6d+/OutN8Jk+eogdzU+bUjrS1tXcwfnwwy+/z83Ph7u4uywvNAq32M7lis6Wymil3rqxZPTh27DjmzJmH9PQ0hIbOwNat6UhMXM/yPsr/hKYbaXX/J2gJxLFj/47Q0BCWOiQkfMaWy5KSM2zTQstn27ZtsWjRAjQ0NGD9+i/RsWNHzXEBWg8Pd0RHR6Jz585ITk5h+WVp6Vn06dNHVIauDygPHzx4KJtTevoWdus8OHgy1q5NQETEUtY9M1OF1avjsG/fv9n8xRpBe+6cGllZu7Bu3XrcvVuHo0d/1Fx8YuO1jzcbtFKfIRB7fLEpZa0JLcH3yy8Xce1aOdq3b882W+Rk2sFTmiAH2q5duzLYaedMbefODMTFrUFu7kEMH/43za5akLlhwyakpKRCrS5B3759IUB7/XoFunbtwrpRjkn56OrV/8DKlctFZejaMC1tC5KSvmx0Efr7B+Dhw4coKzvPLqaEhLUsbSgqOonBgweLMidAK3SkHPjQoe/ZBSi3NQu0cidpSn9rQVtZWYVRo/wxZow/li+P1kyNllAC+erVS+jRowf7Xkqk1a0enD+vxoQJkzVRnOQQLJRj3r5di+LiYuTlHWGbuffee1cDrXb1gNIXV1c3TaQUk6FtX1qyhw79K549+w+LokIp7+DBQ8jK2oO9e7NYCU+l2o2YmFjs2aNCcHCQqIuE9OC3366D9gNffLGORWiSZ6gMZkwgh1bU3I07xMbGsZ1xUy0ubjWio6NMhvbw4VwsXLgY27dvw9SpU5CauhEUXX18vOHp6Yna2lrk5uYZhZZyRsqzZ84Mw6ZNqaIytHXJy8tHePjCJvUbNWokDh7MgXBxTZnyEXbufPP6lbGmWz1ITExiG9i5c+cgNTVFbHij4xxaGeainLJ//4GstJOTk603cuRIP9Cu+dKlC2jTpo2kSEubpuzs/RpZkZHR2L8/my27VKynXHLz5g2YNWsm63Po0GEsWrRED9q6utuaqJidnYOIiEikpKxn0VhMhrYikyZ9xDZztGJQWU67xcevwTffZOD06SIMGPAXhIaGobCwiF0Ys2fPatS3urqa5dXjx49j3+tCS9WH6OgVTNf4+FhERUVK9gSHVrKpAJUqCzEx/8Tu3ZmYMCFYb6SwZKpUGZg0aaIkaGkjRrkn3RUrKytDfPxaBASMYRUGIZqtWrWSRaSLFy8xR1MFQjc9oIgXHj4X9fX1bNmm5b28/AIqKipZumFMhqAIFfr9/ALYpi8pKVFPP+H4ggXhSE5Owq1btzB1aoimqkEXc7du3XH58mV2w4PAPnHiOMv7DdVpKRWZN28BCgp+YivL9OlTJXmDQyvJTG86+fqOwLNnz6BWn8Nbb7XRG/nHHw3w9PRihXZaQimnpchbVHSK9dX9n6oHvr4+7PZuUdHPrA85LiUlmVUBKBpRmYxKT9QIAopIS5dGaDZAtBFTq0vZpi0j483bzZRKpKVtRv/+HpJkCIoIqQ9F0oEDBxi0DOlw+vQZ3Lz5K9tE0R0+2hgeP17A4BXmGRg4ll0oBCw1IYLr3hEje4aEfIKzZ8+x8heV/MQah1bMQjY6TqkApRT00W1UCqN781RpMNYoctFHd1mnMVJlmKPu48eP2aZKANUcWcbGKhZasWdq+VNe1kLK+nLNglZ4U8HUWqq11BMrd9F57flZYGvZRSlyLfKOmPZrNs0BsPDzSXTDQurLjxxax0XYItAaUl+A1xrvjQmQmvPzTPb8ALvj4mSbmdv0FXLhGQI5IFsCUEOm5K+Q2wYwa5xFFFop+aHcicnZBFnqdxe058hTA7kes6/+otDSdMVeEjRFJSmRzhoXDAfWFG/Z1xhJ0NKUxUpIctWSklNa+pxyIrxcfXh/21lAMrSWBlcKQJaElkdY20Fl7TPJgpYmI5SUpJaWmlJACrTm5rPaP89kyoPk1jY+l2+aBWRDq3saa/7EvDVlm2YuPsoeLGA2tPagBJ+Dc1mAQ+tc/laEthxaRbjRuZTg0DqXvxWhLYdWEW50LiU4tM7lb0Voy6FVhBudSwkOrXP5WxHaOje0rwHo/6ysIhyrZCWcG1ole1bBuolDy6ORgt3vmKqJQ+uYevFZK9gCHFoFO1epqnFolepZBevFoVWwc5WqGodWqZ5VsF7/BRH8+48wS4tMAAAAAElFTkSuQmCC;" parent="1" vertex="1">
          <mxGeometry x="670" y="385" width="127.21" height="50" as="geometry" />
        </mxCell>
        <mxCell id="8Glbr3H1sNxpEvfzDe3f-2" value="Cluster Agent" style="rounded=1;whiteSpace=wrap;html=1;fillColor=#66B2FF;" parent="1" vertex="1">
          <mxGeometry x="775" y="450" width="120" height="60" as="geometry" />
        </mxCell>
        <mxCell id="8Glbr3H1sNxpEvfzDe3f-3" value="" style="edgeStyle=orthogonalEdgeStyle;rounded=0;orthogonalLoop=1;jettySize=auto;html=1;" parent="1" source="dJTWJvGlnKYWzjW21LrT-1" target="dJTWJvGlnKYWzjW21LrT-3" edge="1">
          <mxGeometry relative="1" as="geometry">
            <mxPoint x="150" y="110" as="targetPoint" />
          </mxGeometry>
        </mxCell>
        <mxCell id="8Glbr3H1sNxpEvfzDe3f-5" value="" style="endArrow=classic;html=1;rounded=0;exitX=1;exitY=0.5;exitDx=0;exitDy=0;entryX=0.5;entryY=0;entryDx=0;entryDy=0;" parent="1" source="dJTWJvGlnKYWzjW21LrT-3" target="dJTWJvGlnKYWzjW21LrT-6" edge="1">
          <mxGeometry width="50" height="50" relative="1" as="geometry">
            <mxPoint x="450" y="140" as="sourcePoint" />
            <mxPoint x="500" y="90" as="targetPoint" />
          </mxGeometry>
        </mxCell>
        <mxCell id="8Glbr3H1sNxpEvfzDe3f-6" value="" style="endArrow=classic;html=1;rounded=0;exitX=1;exitY=0.5;exitDx=0;exitDy=0;entryX=0.5;entryY=0;entryDx=0;entryDy=0;" parent="1" source="dJTWJvGlnKYWzjW21LrT-3" target="dJTWJvGlnKYWzjW21LrT-7" edge="1">
          <mxGeometry width="50" height="50" relative="1" as="geometry">
            <mxPoint x="500" y="140" as="sourcePoint" />
            <mxPoint x="550" y="90" as="targetPoint" />
          </mxGeometry>
        </mxCell>
        <mxCell id="8Glbr3H1sNxpEvfzDe3f-7" value="" style="endArrow=classic;startArrow=classic;html=1;rounded=0;exitX=0.5;exitY=0;exitDx=0;exitDy=0;entryX=0.25;entryY=1;entryDx=0;entryDy=0;" parent="1" source="dJTWJvGlnKYWzjW21LrT-9" target="dJTWJvGlnKYWzjW21LrT-5" edge="1">
          <mxGeometry width="50" height="50" relative="1" as="geometry">
            <mxPoint x="40" y="330" as="sourcePoint" />
            <mxPoint x="90" y="280" as="targetPoint" />
          </mxGeometry>
        </mxCell>
        <mxCell id="8Glbr3H1sNxpEvfzDe3f-8" value="Tunnel" style="edgeLabel;html=1;align=center;verticalAlign=middle;resizable=0;points=[];fontSize=13;" parent="8Glbr3H1sNxpEvfzDe3f-7" vertex="1" connectable="0">
          <mxGeometry x="-0.1004" y="4" relative="1" as="geometry">
            <mxPoint as="offset" />
          </mxGeometry>
        </mxCell>
        <mxCell id="8Glbr3H1sNxpEvfzDe3f-9" value="" style="endArrow=classic;startArrow=classic;html=1;rounded=0;entryX=0.5;entryY=1;entryDx=0;entryDy=0;" parent="1" source="dJTWJvGlnKYWzjW21LrT-26" target="dJTWJvGlnKYWzjW21LrT-6" edge="1">
          <mxGeometry width="50" height="50" relative="1" as="geometry">
            <mxPoint x="430" y="320" as="sourcePoint" />
            <mxPoint x="480" y="270" as="targetPoint" />
          </mxGeometry>
        </mxCell>
        <mxCell id="8Glbr3H1sNxpEvfzDe3f-10" value="Tunnel" style="edgeLabel;html=1;align=center;verticalAlign=middle;resizable=0;points=[];fontSize=13;" parent="8Glbr3H1sNxpEvfzDe3f-9" vertex="1" connectable="0">
          <mxGeometry x="0.0006" relative="1" as="geometry">
            <mxPoint as="offset" />
          </mxGeometry>
        </mxCell>
        <mxCell id="8Glbr3H1sNxpEvfzDe3f-11" value="" style="endArrow=classic;startArrow=classic;html=1;rounded=0;entryX=1;entryY=0.5;entryDx=0;entryDy=0;exitX=0.5;exitY=0;exitDx=0;exitDy=0;" parent="1" source="8Glbr3H1sNxpEvfzDe3f-2" target="dJTWJvGlnKYWzjW21LrT-7" edge="1">
          <mxGeometry width="50" height="50" relative="1" as="geometry">
            <mxPoint x="830" y="330" as="sourcePoint" />
            <mxPoint x="880" y="280" as="targetPoint" />
            <Array as="points">
              <mxPoint x="835" y="220" />
            </Array>
          </mxGeometry>
        </mxCell>
        <mxCell id="8Glbr3H1sNxpEvfzDe3f-12" value="Tunnel" style="edgeLabel;html=1;align=center;verticalAlign=middle;resizable=0;points=[];fontSize=13;" parent="8Glbr3H1sNxpEvfzDe3f-11" vertex="1" connectable="0">
          <mxGeometry x="-0.1429" y="-1" relative="1" as="geometry">
            <mxPoint as="offset" />
          </mxGeometry>
        </mxCell>
        <mxCell id="8Glbr3H1sNxpEvfzDe3f-14" value="" style="endArrow=classic;html=1;rounded=0;exitX=0;exitY=0.5;exitDx=0;exitDy=0;entryX=0.5;entryY=0;entryDx=0;entryDy=0;" parent="1" source="dJTWJvGlnKYWzjW21LrT-10" target="dJTWJvGlnKYWzjW21LrT-11" edge="1">
          <mxGeometry width="50" height="50" relative="1" as="geometry">
            <mxPoint x="-220" y="490" as="sourcePoint" />
            <mxPoint x="-170" y="440" as="targetPoint" />
          </mxGeometry>
        </mxCell>
        <mxCell id="8Glbr3H1sNxpEvfzDe3f-17" value="" style="endArrow=classic;html=1;rounded=0;exitX=0.5;exitY=1;exitDx=0;exitDy=0;" parent="1" source="dJTWJvGlnKYWzjW21LrT-10" target="dJTWJvGlnKYWzjW21LrT-12" edge="1">
          <mxGeometry width="50" height="50" relative="1" as="geometry">
            <mxPoint x="100" y="520" as="sourcePoint" />
            <mxPoint x="150" y="470" as="targetPoint" />
          </mxGeometry>
        </mxCell>
        <mxCell id="8Glbr3H1sNxpEvfzDe3f-18" value="" style="endArrow=classic;html=1;rounded=0;exitX=1;exitY=0.5;exitDx=0;exitDy=0;entryX=0.25;entryY=0;entryDx=0;entryDy=0;" parent="1" source="dJTWJvGlnKYWzjW21LrT-10" target="dJTWJvGlnKYWzjW21LrT-13" edge="1">
          <mxGeometry width="50" height="50" relative="1" as="geometry">
            <mxPoint x="120" y="500" as="sourcePoint" />
            <mxPoint x="170" y="450" as="targetPoint" />
          </mxGeometry>
        </mxCell>
        <mxCell id="8Glbr3H1sNxpEvfzDe3f-19" value="" style="endArrow=classic;html=1;rounded=0;exitX=1;exitY=0.5;exitDx=0;exitDy=0;entryX=0.578;entryY=0.086;entryDx=0;entryDy=0;entryPerimeter=0;" parent="1" source="dJTWJvGlnKYWzjW21LrT-10" target="dJTWJvGlnKYWzjW21LrT-21" edge="1">
          <mxGeometry width="50" height="50" relative="1" as="geometry">
            <mxPoint x="120" y="510" as="sourcePoint" />
            <mxPoint x="170" y="460" as="targetPoint" />
          </mxGeometry>
        </mxCell>
        <mxCell id="8Glbr3H1sNxpEvfzDe3f-22" value="" style="endArrow=classic;html=1;rounded=0;exitX=0.5;exitY=1;exitDx=0;exitDy=0;entryX=0.5;entryY=0;entryDx=0;entryDy=0;" parent="1" source="dJTWJvGlnKYWzjW21LrT-26" target="dJTWJvGlnKYWzjW21LrT-27" edge="1">
          <mxGeometry width="50" height="50" relative="1" as="geometry">
            <mxPoint x="280" y="480" as="sourcePoint" />
            <mxPoint x="330" y="430" as="targetPoint" />
          </mxGeometry>
        </mxCell>
        <mxCell id="8Glbr3H1sNxpEvfzDe3f-23" value="" style="endArrow=classic;html=1;rounded=0;exitX=0;exitY=0.75;exitDx=0;exitDy=0;entryX=0.5;entryY=0;entryDx=0;entryDy=0;" parent="1" source="dJTWJvGlnKYWzjW21LrT-27" target="dJTWJvGlnKYWzjW21LrT-28" edge="1">
          <mxGeometry width="50" height="50" relative="1" as="geometry">
            <mxPoint x="310" y="560" as="sourcePoint" />
            <mxPoint x="360" y="510" as="targetPoint" />
          </mxGeometry>
        </mxCell>
        <mxCell id="8Glbr3H1sNxpEvfzDe3f-24" value="" style="endArrow=classic;html=1;rounded=0;exitX=0.5;exitY=1;exitDx=0;exitDy=0;entryX=0.5;entryY=0;entryDx=0;entryDy=0;" parent="1" source="dJTWJvGlnKYWzjW21LrT-27" target="dJTWJvGlnKYWzjW21LrT-29" edge="1">
          <mxGeometry width="50" height="50" relative="1" as="geometry">
            <mxPoint x="520" y="550" as="sourcePoint" />
            <mxPoint x="570" y="500" as="targetPoint" />
          </mxGeometry>
        </mxCell>
        <mxCell id="8Glbr3H1sNxpEvfzDe3f-25" value="" style="endArrow=classic;html=1;rounded=0;exitX=1;exitY=0.5;exitDx=0;exitDy=0;entryX=0.25;entryY=0;entryDx=0;entryDy=0;" parent="1" source="dJTWJvGlnKYWzjW21LrT-27" target="dJTWJvGlnKYWzjW21LrT-30" edge="1">
          <mxGeometry width="50" height="50" relative="1" as="geometry">
            <mxPoint x="530" y="540" as="sourcePoint" />
            <mxPoint x="580" y="490" as="targetPoint" />
          </mxGeometry>
        </mxCell>
        <mxCell id="8Glbr3H1sNxpEvfzDe3f-26" value="" style="endArrow=classic;html=1;rounded=0;exitX=1;exitY=0.5;exitDx=0;exitDy=0;entryX=0.5;entryY=0;entryDx=0;entryDy=0;" parent="1" source="dJTWJvGlnKYWzjW21LrT-27" target="dJTWJvGlnKYWzjW21LrT-34" edge="1">
          <mxGeometry width="50" height="50" relative="1" as="geometry">
            <mxPoint x="540" y="540" as="sourcePoint" />
            <mxPoint x="590" y="490" as="targetPoint" />
          </mxGeometry>
        </mxCell>
        <mxCell id="qTwxve_T9qHIae46I5vL-1" value="" style="shape=image;verticalLabelPosition=bottom;labelBackgroundColor=default;verticalAlign=top;aspect=fixed;imageAspect=0;image=data:image/png,iVBORw0KGgoAAAANSUhEUgAAAFwAAAAvCAYAAABuWa03AAAAAXNSR0IArs4c6QAAA4VJREFUeF7tml1y0zAQxzcnoDegNyChfmV6FcIAyVN7lvYpAYZwlQ6vLg03oDcoJzCzbmQ2211ZltfKlzyTh8gryf5p/d/Vx6iqqgrylYzAKANPxrruKANPyzsDT8w7A8/AUxNI3F/W8L0C/riA6qkEwN8Or9H5HOBVAXBW7PApbLpWPby6G9v0YNjK6M23g4cuA0fP/rMwRGXU1FkBNfQDvkTg++jdjvGhe/mgwGvtfT0HMPxiMnDl825gb+5Xvz+aBN8MPBC4lZdn4Bl4pxA+mIZzSUnl4ffrhy0AF+PJ1n/pPi+TCPJ2nI2rW67XdVExHoNmq64WWmQpuwL++foKSgL9193Pht/yxwqWq+/N/9n0A8zeT4GXS8CdLQW9XK22+qL1uH2TZUnr4ccIHD3x0/VVw6QYT+DLzW39vyvwEHts9+vN7QtvPzpJ0Tzc5/k4GE4SGg9+wLL/8kQ9lrflwPKBoIN6Uh7OQUieR+VAkx5n8/bynfilYCEdjJMEjp4p6baWWoQMDvdw6v30a5EC6GCSgit7W+seRrPNtjycexiVBcnjKHgOEu0vJpM6sPrsnrMT2ZYPbDLgqWaaHBp/YU1OeFBtq+frR8tQBk0LmyBxPjddU+/i4ZJs+LwcoWOqN5tO6yB6zwInTTHbshutn+E8XBPJnuVdgaO3cXBtQdM9opaN8FdA3ed9OJlxqefgWUpPrmr1rsDRK305OO0I7egsUQugdHZJ9T19WoiBcrMNJm5gbO732baLAc7TNT4poWke9X4JONZ1EyhJNnz5vqmGcxBSkBxdPq831Fdk1hILXAqKTpMpcBfwNHtejvYu/ZPu8Qynt4a/WDPRgGrbYx3BxwKXvDx2LWU3U3sEiLs52k46B9m2HxkIvg9whE69mUqLBhFlA7MWvgLog67ViZOUNtBPJVSPC3l3J6Au/C29G9htwLsuzyIECtPNFFEm+D0pkvOZZVudTpKiykdHXe7TThvwobIjq3a7AadBjz6Bz6s9T+oDr81MTws4P4gTCZqPgQReW5M/KeD1ghQGSgBdpyO/vRo6XnikzaPjxwnc6EhDJHtvtQx8CKo+3dfiSOLniO3usA5zupNcsW+7B/X858MDJyODv0db/j74A9h1kA/k27EMaikDD8JkZ5SB27EMaikDD8JkZ5SB27EMaikDD8JkZ5SB27EMaikDD8JkZ/QPVVpeoSzoN8QAAAAASUVORK5CYII=;" vertex="1" parent="1">
          <mxGeometry x="-132" y="385" width="92" height="47" as="geometry" />
        </mxCell>
      </root>
    </mxGraphModel>
  </diagram>
</mxfile>
